%TF.GenerationSoftware,KiCad,Pcbnew,(6.0.8)*%
%TF.CreationDate,2022-12-19T21:27:52+01:00*%
%TF.ProjectId,Genna,47656e6e-612e-46b6-9963-61645f706362,rev?*%
%TF.SameCoordinates,Original*%
%TF.FileFunction,Legend,Bot*%
%TF.FilePolarity,Positive*%
%FSLAX46Y46*%
G04 Gerber Fmt 4.6, Leading zero omitted, Abs format (unit mm)*
G04 Created by KiCad (PCBNEW (6.0.8)) date 2022-12-19 21:27:52*
%MOMM*%
%LPD*%
G01*
G04 APERTURE LIST*
%ADD10C,0.200000*%
%ADD11C,0.120000*%
G04 APERTURE END LIST*
D10*
X138930000Y-70500000D02*
X139930000Y-70500000D01*
X138680000Y-71000000D02*
X139430000Y-71000000D01*
X139430000Y-71000000D02*
X139430000Y-71500000D01*
X140180000Y-71000000D02*
X139430000Y-71000000D01*
X135844821Y-69250950D02*
X135806726Y-69212855D01*
X135730535Y-69174759D01*
X135540059Y-69174759D01*
X135463869Y-69212855D01*
X135425773Y-69250950D01*
X135387678Y-69327140D01*
X135387678Y-69403331D01*
X135425773Y-69517616D01*
X135882916Y-69974759D01*
X135387678Y-69974759D01*
X136925595Y-70611904D02*
X136849404Y-70611904D01*
X136773214Y-70650000D01*
X136735119Y-70688095D01*
X136697023Y-70764285D01*
X136658928Y-70916666D01*
X136658928Y-71107142D01*
X136697023Y-71259523D01*
X136735119Y-71335714D01*
X136773214Y-71373809D01*
X136849404Y-71411904D01*
X136925595Y-71411904D01*
X137001785Y-71373809D01*
X137039880Y-71335714D01*
X137077976Y-71259523D01*
X137116071Y-71107142D01*
X137116071Y-70916666D01*
X137077976Y-70764285D01*
X137039880Y-70688095D01*
X137001785Y-70650000D01*
X136925595Y-70611904D01*
X133226130Y-69974759D02*
X133683273Y-69974759D01*
X133454702Y-69974759D02*
X133454702Y-69174759D01*
X133530892Y-69289045D01*
X133607083Y-69365235D01*
X133683273Y-69403331D01*
X132502321Y-69174759D02*
X132883273Y-69174759D01*
X132921369Y-69555712D01*
X132883273Y-69517616D01*
X132807083Y-69479521D01*
X132616607Y-69479521D01*
X132540416Y-69517616D01*
X132502321Y-69555712D01*
X132464226Y-69631902D01*
X132464226Y-69822378D01*
X132502321Y-69898569D01*
X132540416Y-69936664D01*
X132616607Y-69974759D01*
X132807083Y-69974759D01*
X132883273Y-69936664D01*
X132921369Y-69898569D01*
X138773809Y-76000000D02*
X138869047Y-75952380D01*
X139011904Y-75952380D01*
X139154761Y-76000000D01*
X139250000Y-76095238D01*
X139297619Y-76190476D01*
X139345238Y-76380952D01*
X139345238Y-76523809D01*
X139297619Y-76714285D01*
X139250000Y-76809523D01*
X139154761Y-76904761D01*
X139011904Y-76952380D01*
X138916666Y-76952380D01*
X138773809Y-76904761D01*
X138726190Y-76857142D01*
X138726190Y-76523809D01*
X138916666Y-76523809D01*
X137916666Y-76904761D02*
X138011904Y-76952380D01*
X138202380Y-76952380D01*
X138297619Y-76904761D01*
X138345238Y-76809523D01*
X138345238Y-76428571D01*
X138297619Y-76333333D01*
X138202380Y-76285714D01*
X138011904Y-76285714D01*
X137916666Y-76333333D01*
X137869047Y-76428571D01*
X137869047Y-76523809D01*
X138345238Y-76619047D01*
X137440476Y-76285714D02*
X137440476Y-76952380D01*
X137440476Y-76380952D02*
X137392857Y-76333333D01*
X137297619Y-76285714D01*
X137154761Y-76285714D01*
X137059523Y-76333333D01*
X137011904Y-76428571D01*
X137011904Y-76952380D01*
X136535714Y-76285714D02*
X136535714Y-76952380D01*
X136535714Y-76380952D02*
X136488095Y-76333333D01*
X136392857Y-76285714D01*
X136250000Y-76285714D01*
X136154761Y-76333333D01*
X136107142Y-76428571D01*
X136107142Y-76952380D01*
X135202380Y-76952380D02*
X135202380Y-76428571D01*
X135250000Y-76333333D01*
X135345238Y-76285714D01*
X135535714Y-76285714D01*
X135630952Y-76333333D01*
X135202380Y-76904761D02*
X135297619Y-76952380D01*
X135535714Y-76952380D01*
X135630952Y-76904761D01*
X135678571Y-76809523D01*
X135678571Y-76714285D01*
X135630952Y-76619047D01*
X135535714Y-76571428D01*
X135297619Y-76571428D01*
X135202380Y-76523809D01*
X137930178Y-69974759D02*
X138387321Y-69974759D01*
X138158750Y-69974759D02*
X138158750Y-69174759D01*
X138234940Y-69289045D01*
X138311130Y-69365235D01*
X138387321Y-69403331D01*
X130683630Y-69974759D02*
X131140773Y-69974759D01*
X130912202Y-69974759D02*
X130912202Y-69174759D01*
X130988392Y-69289045D01*
X131064583Y-69365235D01*
X131140773Y-69403331D01*
X129997916Y-69441426D02*
X129997916Y-69974759D01*
X130188392Y-69136664D02*
X130378869Y-69708093D01*
X129883630Y-69708093D01*
X134611666Y-70611904D02*
X134116428Y-70611904D01*
X134383095Y-70916666D01*
X134268809Y-70916666D01*
X134192619Y-70954761D01*
X134154523Y-70992857D01*
X134116428Y-71069047D01*
X134116428Y-71259523D01*
X134154523Y-71335714D01*
X134192619Y-71373809D01*
X134268809Y-71411904D01*
X134497380Y-71411904D01*
X134573571Y-71373809D01*
X134611666Y-71335714D01*
X129012380Y-71421904D02*
X129279047Y-71040952D01*
X129469523Y-71421904D02*
X129469523Y-70621904D01*
X129164761Y-70621904D01*
X129088571Y-70660000D01*
X129050476Y-70698095D01*
X129012380Y-70774285D01*
X129012380Y-70888571D01*
X129050476Y-70964761D01*
X129088571Y-71002857D01*
X129164761Y-71040952D01*
X129469523Y-71040952D01*
X131954880Y-71411904D02*
X132412023Y-71411904D01*
X132183452Y-71411904D02*
X132183452Y-70611904D01*
X132259642Y-70726190D01*
X132335833Y-70802380D01*
X132412023Y-70840476D01*
X131269166Y-70611904D02*
X131421547Y-70611904D01*
X131497738Y-70650000D01*
X131535833Y-70688095D01*
X131612023Y-70802380D01*
X131650119Y-70954761D01*
X131650119Y-71259523D01*
X131612023Y-71335714D01*
X131573928Y-71373809D01*
X131497738Y-71411904D01*
X131345357Y-71411904D01*
X131269166Y-71373809D01*
X131231071Y-71335714D01*
X131192976Y-71259523D01*
X131192976Y-71069047D01*
X131231071Y-70992857D01*
X131269166Y-70954761D01*
X131345357Y-70916666D01*
X131497738Y-70916666D01*
X131573928Y-70954761D01*
X131612023Y-70992857D01*
X131650119Y-71069047D01*
X132864285Y-76285714D02*
X132626190Y-76952380D01*
X132388095Y-76285714D01*
X131483333Y-76952380D02*
X132054761Y-76952380D01*
X131769047Y-76952380D02*
X131769047Y-75952380D01*
X131864285Y-76095238D01*
X131959523Y-76190476D01*
X132054761Y-76238095D01*
D11*
%TO.C,R2*%
X128680000Y-82243641D02*
X128680000Y-81936359D01*
X129440000Y-82243641D02*
X129440000Y-81936359D01*
%TO.C,R3*%
X129460000Y-78523641D02*
X129460000Y-78216359D01*
X128700000Y-78523641D02*
X128700000Y-78216359D01*
%TO.C,G\u002A\u002A\u002A*%
G36*
X131084137Y-77239134D02*
G01*
X131093839Y-77264691D01*
X131100538Y-77288647D01*
X131104258Y-77311091D01*
X131105022Y-77332114D01*
X131102853Y-77351805D01*
X131097774Y-77370253D01*
X131089808Y-77387548D01*
X131081328Y-77399568D01*
X131069841Y-77411039D01*
X131056439Y-77420952D01*
X131042028Y-77428642D01*
X131027509Y-77433444D01*
X131017521Y-77434821D01*
X131004315Y-77435113D01*
X130990277Y-77434179D01*
X130976775Y-77432118D01*
X130965178Y-77429026D01*
X130960789Y-77427423D01*
X130946894Y-77421500D01*
X130932654Y-77414094D01*
X130917831Y-77405023D01*
X130902187Y-77394104D01*
X130885484Y-77381155D01*
X130867481Y-77365994D01*
X130847942Y-77348439D01*
X130826628Y-77328308D01*
X130803300Y-77305419D01*
X130759377Y-77261651D01*
X130750721Y-77278532D01*
X130735641Y-77307655D01*
X130712059Y-77351953D01*
X130689413Y-77392877D01*
X130667625Y-77430535D01*
X130646620Y-77465035D01*
X130626322Y-77496487D01*
X130606655Y-77524997D01*
X130587545Y-77550676D01*
X130568913Y-77573631D01*
X130550686Y-77593970D01*
X130532787Y-77611802D01*
X130515140Y-77627236D01*
X130497669Y-77640380D01*
X130490392Y-77645193D01*
X130471405Y-77656007D01*
X130451691Y-77664999D01*
X130432202Y-77671767D01*
X130413889Y-77675906D01*
X130403823Y-77676842D01*
X130389111Y-77676692D01*
X130373694Y-77675124D01*
X130359050Y-77672237D01*
X130352271Y-77670368D01*
X130330673Y-77662506D01*
X130309228Y-77651738D01*
X130287852Y-77637979D01*
X130266459Y-77621147D01*
X130244965Y-77601160D01*
X130223286Y-77577933D01*
X130201337Y-77551385D01*
X130179032Y-77521432D01*
X130156287Y-77487991D01*
X130133018Y-77450980D01*
X130129791Y-77445630D01*
X130118808Y-77427042D01*
X130106766Y-77406170D01*
X130094094Y-77383789D01*
X130081223Y-77360677D01*
X130068582Y-77337608D01*
X130056600Y-77315360D01*
X130045709Y-77294709D01*
X130036338Y-77276430D01*
X130035347Y-77274494D01*
X130032124Y-77268637D01*
X130029518Y-77264543D01*
X130028017Y-77263004D01*
X130026609Y-77263992D01*
X130022986Y-77267263D01*
X130017636Y-77272408D01*
X130011000Y-77279001D01*
X130003522Y-77286616D01*
X129986415Y-77304042D01*
X129961435Y-77328683D01*
X129938269Y-77350447D01*
X129916754Y-77369444D01*
X129896724Y-77385787D01*
X129878016Y-77399586D01*
X129860464Y-77410953D01*
X129843904Y-77420000D01*
X129828172Y-77426838D01*
X129813104Y-77431580D01*
X129798533Y-77434335D01*
X129784297Y-77435216D01*
X129778094Y-77435084D01*
X129760440Y-77433006D01*
X129744713Y-77428207D01*
X129730222Y-77420422D01*
X129716273Y-77409388D01*
X129713168Y-77406400D01*
X129701766Y-77392322D01*
X129693007Y-77375965D01*
X129686979Y-77357674D01*
X129683775Y-77337793D01*
X129683483Y-77316665D01*
X129686194Y-77294635D01*
X129689721Y-77279445D01*
X129697290Y-77256056D01*
X129707790Y-77230731D01*
X129721159Y-77203578D01*
X129725345Y-77196106D01*
X129892356Y-77196106D01*
X129892683Y-77196382D01*
X129895106Y-77194343D01*
X129899898Y-77189850D01*
X129901902Y-77187882D01*
X129906907Y-77182781D01*
X129913805Y-77175613D01*
X129922218Y-77166780D01*
X129931764Y-77156681D01*
X129942061Y-77145718D01*
X129952729Y-77134291D01*
X129954654Y-77132222D01*
X129966746Y-77119232D01*
X129976642Y-77108630D01*
X129984633Y-77100138D01*
X129991009Y-77093477D01*
X129996060Y-77088368D01*
X130000077Y-77084533D01*
X130003350Y-77081692D01*
X130006170Y-77079568D01*
X130008828Y-77077881D01*
X130011612Y-77076352D01*
X130014815Y-77074702D01*
X130019559Y-77072415D01*
X130024008Y-77070842D01*
X130028926Y-77069954D01*
X130035393Y-77069560D01*
X130044484Y-77069471D01*
X130045942Y-77069472D01*
X130054521Y-77069580D01*
X130060703Y-77070024D01*
X130065631Y-77071020D01*
X130070451Y-77072788D01*
X130076308Y-77075547D01*
X130080848Y-77077904D01*
X130085852Y-77080977D01*
X130090449Y-77084570D01*
X130094889Y-77089035D01*
X130099426Y-77094723D01*
X130104311Y-77101988D01*
X130109797Y-77111180D01*
X130116135Y-77122653D01*
X130123578Y-77136758D01*
X130132377Y-77153847D01*
X130133961Y-77156943D01*
X130150015Y-77188197D01*
X130164695Y-77216516D01*
X130178203Y-77242274D01*
X130190741Y-77265843D01*
X130202511Y-77287598D01*
X130213715Y-77307911D01*
X130224555Y-77327157D01*
X130235232Y-77345707D01*
X130245949Y-77363937D01*
X130261802Y-77389985D01*
X130280915Y-77419568D01*
X130299338Y-77446024D01*
X130317013Y-77469280D01*
X130333883Y-77489265D01*
X130349890Y-77505909D01*
X130364976Y-77519139D01*
X130379085Y-77528884D01*
X130381360Y-77530144D01*
X130387275Y-77532890D01*
X130392048Y-77534447D01*
X130392895Y-77534565D01*
X130399305Y-77533623D01*
X130407461Y-77529998D01*
X130417002Y-77523967D01*
X130427566Y-77515805D01*
X130438790Y-77505787D01*
X130450313Y-77494191D01*
X130461771Y-77481293D01*
X130463584Y-77479126D01*
X130474936Y-77465077D01*
X130486317Y-77450137D01*
X130497849Y-77434098D01*
X130509655Y-77416753D01*
X130521861Y-77397894D01*
X130534589Y-77377314D01*
X130547963Y-77354805D01*
X130562106Y-77330160D01*
X130577143Y-77303171D01*
X130593197Y-77273631D01*
X130610392Y-77241331D01*
X130628851Y-77206066D01*
X130648698Y-77167626D01*
X130649351Y-77166354D01*
X130658950Y-77147750D01*
X130667140Y-77132139D01*
X130674135Y-77119210D01*
X130680152Y-77108654D01*
X130685405Y-77100162D01*
X130690110Y-77093422D01*
X130694483Y-77088126D01*
X130698738Y-77083964D01*
X130703092Y-77080625D01*
X130707759Y-77077801D01*
X130712955Y-77075180D01*
X130717805Y-77072974D01*
X130722968Y-77071100D01*
X130728168Y-77070043D01*
X130734626Y-77069576D01*
X130743563Y-77069471D01*
X130751941Y-77069551D01*
X130758392Y-77069961D01*
X130763494Y-77070941D01*
X130768459Y-77072730D01*
X130774500Y-77075566D01*
X130776797Y-77076738D01*
X130780370Y-77078807D01*
X130784012Y-77081345D01*
X130788068Y-77084679D01*
X130792883Y-77089132D01*
X130798804Y-77095030D01*
X130806175Y-77102698D01*
X130815342Y-77112461D01*
X130826650Y-77124644D01*
X130831926Y-77130344D01*
X130847516Y-77147156D01*
X130860715Y-77161323D01*
X130871603Y-77172912D01*
X130880263Y-77181993D01*
X130886775Y-77188633D01*
X130891221Y-77192900D01*
X130893683Y-77194863D01*
X130894242Y-77194590D01*
X130892980Y-77192149D01*
X130889977Y-77187609D01*
X130885316Y-77181036D01*
X130879078Y-77172501D01*
X130871344Y-77162070D01*
X130869553Y-77159671D01*
X130849148Y-77133111D01*
X130826371Y-77104741D01*
X130801656Y-77075071D01*
X130775434Y-77044614D01*
X130748139Y-77013880D01*
X130720204Y-76983382D01*
X130711360Y-76973957D01*
X130701054Y-76963129D01*
X130690188Y-76951845D01*
X130679074Y-76940420D01*
X130668025Y-76929167D01*
X130657352Y-76918398D01*
X130647367Y-76908426D01*
X130638383Y-76899566D01*
X130630712Y-76892129D01*
X130624664Y-76886430D01*
X130620553Y-76882780D01*
X130618690Y-76881494D01*
X130617312Y-76882842D01*
X130616667Y-76886494D01*
X130616542Y-76889663D01*
X130615895Y-76897133D01*
X130614789Y-76906986D01*
X130613335Y-76918447D01*
X130611639Y-76930744D01*
X130609810Y-76943102D01*
X130607956Y-76954748D01*
X130606185Y-76964910D01*
X130604604Y-76972813D01*
X130602919Y-76979908D01*
X130597963Y-76996105D01*
X130591905Y-77009589D01*
X130584405Y-77021035D01*
X130575119Y-77031118D01*
X130566687Y-77038318D01*
X130556307Y-77045447D01*
X130544713Y-77051575D01*
X130531553Y-77056805D01*
X130516472Y-77061239D01*
X130499115Y-77064980D01*
X130479128Y-77068129D01*
X130456157Y-77070790D01*
X130429848Y-77073064D01*
X130417406Y-77073943D01*
X130405612Y-77074570D01*
X130395179Y-77074800D01*
X130384869Y-77074633D01*
X130373445Y-77074070D01*
X130359671Y-77073111D01*
X130345376Y-77071961D01*
X130321445Y-77069600D01*
X130300618Y-77066866D01*
X130282509Y-77063658D01*
X130266733Y-77059879D01*
X130252903Y-77055429D01*
X130240635Y-77050209D01*
X130229541Y-77044119D01*
X130219237Y-77037062D01*
X130211754Y-77030742D01*
X130204574Y-77022885D01*
X130198349Y-77013727D01*
X130192955Y-77002925D01*
X130188269Y-76990136D01*
X130184165Y-76975017D01*
X130180519Y-76957225D01*
X130177209Y-76936415D01*
X130174109Y-76912246D01*
X130173136Y-76904101D01*
X130171966Y-76894777D01*
X130170960Y-76887289D01*
X130170201Y-76882252D01*
X130169775Y-76880281D01*
X130169598Y-76880324D01*
X130167442Y-76882102D01*
X130163116Y-76886170D01*
X130156914Y-76892223D01*
X130149135Y-76899960D01*
X130140075Y-76909075D01*
X130130030Y-76919266D01*
X130119297Y-76930229D01*
X130108173Y-76941659D01*
X130096953Y-76953254D01*
X130085936Y-76964710D01*
X130075417Y-76975723D01*
X130065693Y-76985990D01*
X130057061Y-76995206D01*
X130049818Y-77003069D01*
X130036203Y-77018142D01*
X130014606Y-77042534D01*
X129993510Y-77066933D01*
X129973220Y-77090968D01*
X129954041Y-77114265D01*
X129936279Y-77136452D01*
X129920239Y-77157157D01*
X129906226Y-77176006D01*
X129894545Y-77192628D01*
X129893854Y-77193658D01*
X129892356Y-77196106D01*
X129725345Y-77196106D01*
X129737336Y-77174705D01*
X129756258Y-77144222D01*
X129777863Y-77112236D01*
X129802091Y-77078856D01*
X129828878Y-77044191D01*
X129831457Y-77040939D01*
X129837475Y-77033281D01*
X129842608Y-77026654D01*
X129846379Y-77021677D01*
X129848311Y-77018970D01*
X129848571Y-77018350D01*
X129848559Y-77017055D01*
X129847915Y-77015130D01*
X129846476Y-77012342D01*
X129844080Y-77008462D01*
X129840566Y-77003257D01*
X129835772Y-76996497D01*
X129829537Y-76987950D01*
X129821698Y-76977386D01*
X129812094Y-76964574D01*
X129800563Y-76949281D01*
X129786944Y-76931278D01*
X129778916Y-76920657D01*
X129767347Y-76905276D01*
X129756476Y-76890734D01*
X129746522Y-76877334D01*
X129737708Y-76865376D01*
X129730255Y-76855160D01*
X129724384Y-76846987D01*
X129720316Y-76841157D01*
X129718273Y-76837973D01*
X129712910Y-76824785D01*
X129710283Y-76809879D01*
X129710798Y-76794824D01*
X129714515Y-76780570D01*
X129714924Y-76779612D01*
X129717239Y-76774857D01*
X129720962Y-76767678D01*
X129725777Y-76758668D01*
X129731369Y-76748421D01*
X129737420Y-76737532D01*
X129740029Y-76732868D01*
X129745589Y-76722828D01*
X129750368Y-76714064D01*
X129754105Y-76707065D01*
X129756539Y-76702315D01*
X129757408Y-76700301D01*
X129757389Y-76700220D01*
X129756053Y-76698022D01*
X129752807Y-76693309D01*
X129747935Y-76686476D01*
X129741720Y-76677914D01*
X129734444Y-76668018D01*
X129726389Y-76657180D01*
X129707983Y-76632232D01*
X129671672Y-76581115D01*
X129637223Y-76530014D01*
X129604726Y-76479115D01*
X129574276Y-76428600D01*
X129545962Y-76378653D01*
X129519878Y-76329458D01*
X129496116Y-76281197D01*
X129474767Y-76234053D01*
X129455924Y-76188212D01*
X129439678Y-76143855D01*
X129426122Y-76101167D01*
X129415348Y-76060330D01*
X129407447Y-76021529D01*
X129404723Y-76003759D01*
X129401310Y-75969030D01*
X129400936Y-75947273D01*
X129542853Y-75947273D01*
X129542978Y-75959822D01*
X129543482Y-75971382D01*
X129544325Y-75980602D01*
X129544838Y-75984366D01*
X129550717Y-76017255D01*
X129559327Y-76052270D01*
X129570551Y-76089207D01*
X129584275Y-76127864D01*
X129600382Y-76168036D01*
X129618757Y-76209520D01*
X129639284Y-76252113D01*
X129661847Y-76295611D01*
X129686330Y-76339812D01*
X129712618Y-76384512D01*
X129740596Y-76429506D01*
X129770146Y-76474593D01*
X129801154Y-76519569D01*
X129833504Y-76564230D01*
X129867080Y-76608372D01*
X129901766Y-76651794D01*
X129937447Y-76694290D01*
X129974007Y-76735658D01*
X129981409Y-76743772D01*
X129991794Y-76755048D01*
X130002391Y-76766452D01*
X130012307Y-76777024D01*
X130020646Y-76785799D01*
X130041667Y-76807706D01*
X130059957Y-76789235D01*
X130078246Y-76770765D01*
X130078712Y-76729363D01*
X130078825Y-76723022D01*
X130296750Y-76723022D01*
X130296759Y-76725296D01*
X130297173Y-76730455D01*
X130297925Y-76737776D01*
X130298949Y-76746537D01*
X130299097Y-76747761D01*
X130300071Y-76756213D01*
X130301309Y-76767506D01*
X130302736Y-76780929D01*
X130304277Y-76795769D01*
X130305857Y-76811317D01*
X130307402Y-76826861D01*
X130308268Y-76835619D01*
X130310125Y-76853921D01*
X130311912Y-76870944D01*
X130313591Y-76886345D01*
X130315123Y-76899780D01*
X130316466Y-76910903D01*
X130317581Y-76919372D01*
X130318429Y-76924841D01*
X130318970Y-76926966D01*
X130320149Y-76927216D01*
X130324357Y-76927810D01*
X130330865Y-76928612D01*
X130338889Y-76929524D01*
X130353745Y-76930887D01*
X130376449Y-76932108D01*
X130399535Y-76932435D01*
X130422004Y-76931878D01*
X130442862Y-76930449D01*
X130461112Y-76928158D01*
X130469445Y-76926795D01*
X130471646Y-76911090D01*
X130472149Y-76907196D01*
X130473092Y-76899199D01*
X130474291Y-76888491D01*
X130475687Y-76875624D01*
X130477221Y-76861157D01*
X130478831Y-76845643D01*
X130480458Y-76829639D01*
X130481604Y-76818306D01*
X130483259Y-76802147D01*
X130484869Y-76786664D01*
X130486369Y-76772457D01*
X130487696Y-76760129D01*
X130488786Y-76750283D01*
X130489576Y-76743521D01*
X130490436Y-76736383D01*
X130491230Y-76729442D01*
X130491725Y-76724664D01*
X130491840Y-76722806D01*
X130490146Y-76722634D01*
X130485219Y-76722300D01*
X130477545Y-76721835D01*
X130467609Y-76721270D01*
X130455897Y-76720631D01*
X130442895Y-76719948D01*
X130436384Y-76719620D01*
X130419817Y-76718891D01*
X130405379Y-76718472D01*
X130391915Y-76718363D01*
X130378269Y-76718563D01*
X130363283Y-76719072D01*
X130345802Y-76719887D01*
X130333641Y-76720524D01*
X130321824Y-76721184D01*
X130311737Y-76721791D01*
X130303870Y-76722314D01*
X130298717Y-76722722D01*
X130296771Y-76722983D01*
X130296750Y-76723022D01*
X130078825Y-76723022D01*
X130078962Y-76715358D01*
X130079826Y-76693980D01*
X130081332Y-76674782D01*
X130083584Y-76656822D01*
X130086687Y-76639161D01*
X130090745Y-76620859D01*
X130091736Y-76616843D01*
X130101567Y-76584146D01*
X130104890Y-76576073D01*
X130351852Y-76576073D01*
X130352418Y-76576207D01*
X130356031Y-76576429D01*
X130362540Y-76576620D01*
X130371426Y-76576768D01*
X130382172Y-76576865D01*
X130394258Y-76576899D01*
X130436664Y-76576899D01*
X130429488Y-76566685D01*
X130427208Y-76563598D01*
X130421725Y-76556742D01*
X130415180Y-76549043D01*
X130408541Y-76541655D01*
X130394769Y-76526839D01*
X130383381Y-76537951D01*
X130382468Y-76538855D01*
X130377533Y-76544048D01*
X130371900Y-76550353D01*
X130366100Y-76557127D01*
X130360664Y-76563729D01*
X130356123Y-76569515D01*
X130353008Y-76573844D01*
X130351852Y-76576073D01*
X130104890Y-76576073D01*
X130114004Y-76553928D01*
X130129192Y-76525915D01*
X130147278Y-76499831D01*
X130168409Y-76475402D01*
X130168733Y-76475064D01*
X130189455Y-76455222D01*
X130211611Y-76437469D01*
X130235641Y-76421543D01*
X130261980Y-76407178D01*
X130291068Y-76394113D01*
X130323340Y-76382084D01*
X130331225Y-76379343D01*
X130339048Y-76376425D01*
X130339095Y-76376404D01*
X130448149Y-76376404D01*
X130468600Y-76383520D01*
X130497307Y-76394738D01*
X130523678Y-76406566D01*
X130547259Y-76418796D01*
X130567593Y-76431217D01*
X130590346Y-76447938D01*
X130615312Y-76470347D01*
X130637392Y-76495063D01*
X130656551Y-76522034D01*
X130672752Y-76551210D01*
X130683583Y-76576899D01*
X130685961Y-76582539D01*
X130696142Y-76615971D01*
X130696724Y-76618305D01*
X130700096Y-76632667D01*
X130702764Y-76645974D01*
X130704818Y-76659017D01*
X130706351Y-76672590D01*
X130707455Y-76687486D01*
X130708223Y-76704498D01*
X130708704Y-76722806D01*
X130708746Y-76724417D01*
X130709695Y-76771984D01*
X130727845Y-76788773D01*
X130729487Y-76790290D01*
X130736038Y-76796275D01*
X130741455Y-76801125D01*
X130745212Y-76804376D01*
X130746788Y-76805563D01*
X130748335Y-76804378D01*
X130752072Y-76800837D01*
X130757619Y-76795314D01*
X130764616Y-76788186D01*
X130772703Y-76779830D01*
X130781518Y-76770622D01*
X130790700Y-76760940D01*
X130799890Y-76751160D01*
X130808726Y-76741659D01*
X130816848Y-76732814D01*
X130823895Y-76725001D01*
X130853379Y-76691256D01*
X130899535Y-76635719D01*
X130944279Y-76578546D01*
X130987320Y-76520162D01*
X131028367Y-76460993D01*
X131067126Y-76401463D01*
X131103308Y-76341999D01*
X131136620Y-76283024D01*
X131166771Y-76224965D01*
X131166921Y-76224663D01*
X131185008Y-76187134D01*
X131200849Y-76152050D01*
X131214588Y-76119031D01*
X131226366Y-76087694D01*
X131236329Y-76057660D01*
X131244618Y-76028548D01*
X131251378Y-75999976D01*
X131253034Y-75991837D01*
X131254449Y-75983557D01*
X131255403Y-75975582D01*
X131255986Y-75966909D01*
X131256287Y-75956536D01*
X131256393Y-75943463D01*
X131256384Y-75936807D01*
X131256086Y-75922925D01*
X131255313Y-75911928D01*
X131253956Y-75903243D01*
X131251904Y-75896301D01*
X131249048Y-75890529D01*
X131245280Y-75885356D01*
X131243524Y-75883570D01*
X131236892Y-75878925D01*
X131227837Y-75874421D01*
X131217256Y-75870467D01*
X131206049Y-75867473D01*
X131205877Y-75867437D01*
X131187279Y-75865130D01*
X131167506Y-75865815D01*
X131146484Y-75869524D01*
X131124135Y-75876288D01*
X131100383Y-75886139D01*
X131075152Y-75899108D01*
X131048364Y-75915228D01*
X131019944Y-75934529D01*
X130989815Y-75957044D01*
X130980800Y-75964114D01*
X130970083Y-75972679D01*
X130959335Y-75981467D01*
X130948293Y-75990714D01*
X130936691Y-76000651D01*
X130924265Y-76011515D01*
X130910750Y-76023537D01*
X130895883Y-76036951D01*
X130879398Y-76051992D01*
X130861031Y-76068893D01*
X130840518Y-76087888D01*
X130817593Y-76109211D01*
X130815630Y-76111039D01*
X130791351Y-76133601D01*
X130769453Y-76153830D01*
X130749681Y-76171956D01*
X130731775Y-76188203D01*
X130715478Y-76202802D01*
X130700532Y-76215978D01*
X130686679Y-76227960D01*
X130673661Y-76238975D01*
X130661220Y-76249251D01*
X130649098Y-76259014D01*
X130637038Y-76268493D01*
X130630787Y-76273415D01*
X130622898Y-76279789D01*
X130615947Y-76285573D01*
X130610940Y-76289942D01*
X130606979Y-76293347D01*
X130601027Y-76297862D01*
X130596125Y-76300935D01*
X130595189Y-76301430D01*
X130590487Y-76304096D01*
X130583656Y-76308120D01*
X130575460Y-76313048D01*
X130566667Y-76318425D01*
X130549881Y-76328579D01*
X130531227Y-76339238D01*
X130514002Y-76348262D01*
X130497413Y-76356040D01*
X130480664Y-76362963D01*
X130462963Y-76369420D01*
X130457644Y-76371346D01*
X130453938Y-76372876D01*
X130451949Y-76373697D01*
X130448585Y-76375477D01*
X130448149Y-76376404D01*
X130339095Y-76376404D01*
X130343805Y-76374312D01*
X130345778Y-76372876D01*
X130345249Y-76371986D01*
X130341763Y-76370619D01*
X130326306Y-76364511D01*
X130313638Y-76359401D01*
X130303192Y-76355042D01*
X130294401Y-76351187D01*
X130286697Y-76347588D01*
X130279514Y-76343999D01*
X130272284Y-76340172D01*
X130269512Y-76338653D01*
X130255684Y-76330667D01*
X130240148Y-76321149D01*
X130223875Y-76310732D01*
X130207838Y-76300048D01*
X130193008Y-76289730D01*
X130180359Y-76280408D01*
X130168018Y-76270881D01*
X130155886Y-76261356D01*
X130144027Y-76251851D01*
X130132174Y-76242134D01*
X130120057Y-76231968D01*
X130107410Y-76221119D01*
X130093963Y-76209353D01*
X130079449Y-76196434D01*
X130063599Y-76182129D01*
X130046146Y-76166202D01*
X130026821Y-76148419D01*
X130005355Y-76128545D01*
X129981482Y-76106345D01*
X129974993Y-76100305D01*
X129951276Y-76078313D01*
X129929898Y-76058637D01*
X129910614Y-76041058D01*
X129893180Y-76025356D01*
X129877349Y-76011313D01*
X129862879Y-75998707D01*
X129849523Y-75987321D01*
X129837038Y-75976936D01*
X129827327Y-75969042D01*
X129796756Y-75945297D01*
X129767937Y-75924701D01*
X129740778Y-75907218D01*
X129715186Y-75892812D01*
X129691068Y-75881448D01*
X129668331Y-75873089D01*
X129646882Y-75867701D01*
X129626629Y-75865247D01*
X129607479Y-75865692D01*
X129589339Y-75869001D01*
X129572116Y-75875137D01*
X129567711Y-75877295D01*
X129559796Y-75882577D01*
X129553687Y-75889177D01*
X129549170Y-75897558D01*
X129546032Y-75908181D01*
X129544057Y-75921510D01*
X129543033Y-75938006D01*
X129542853Y-75947273D01*
X129400936Y-75947273D01*
X129400747Y-75936315D01*
X129403023Y-75905680D01*
X129408122Y-75877190D01*
X129416031Y-75850912D01*
X129426737Y-75826912D01*
X129440225Y-75805254D01*
X129456482Y-75786007D01*
X129467038Y-75775925D01*
X129482070Y-75763985D01*
X129498454Y-75753800D01*
X129516969Y-75744902D01*
X129538393Y-75736823D01*
X129546904Y-75734030D01*
X129558272Y-75730711D01*
X129568858Y-75728289D01*
X129579559Y-75726636D01*
X129591269Y-75725625D01*
X129604883Y-75725129D01*
X129621297Y-75725019D01*
X129621684Y-75725020D01*
X129635434Y-75725119D01*
X129646317Y-75725378D01*
X129655151Y-75725860D01*
X129662751Y-75726627D01*
X129669933Y-75727739D01*
X129677513Y-75729259D01*
X129679621Y-75729722D01*
X129704454Y-75736172D01*
X129729487Y-75744549D01*
X129754905Y-75754970D01*
X129780895Y-75767549D01*
X129807643Y-75782400D01*
X129835335Y-75799641D01*
X129864155Y-75819385D01*
X129894290Y-75841747D01*
X129925926Y-75866844D01*
X129959249Y-75894790D01*
X129994444Y-75925699D01*
X129997708Y-75928645D01*
X130004739Y-75935054D01*
X130013840Y-75943402D01*
X130024624Y-75953333D01*
X130036704Y-75964488D01*
X130049694Y-75976511D01*
X130063206Y-75989046D01*
X130076852Y-76001734D01*
X130083277Y-76007711D01*
X130111431Y-76033801D01*
X130137065Y-76057380D01*
X130160163Y-76078436D01*
X130180714Y-76096957D01*
X130198702Y-76112930D01*
X130214116Y-76126344D01*
X130226940Y-76137186D01*
X130237161Y-76145445D01*
X130244766Y-76151108D01*
X130251703Y-76155915D01*
X130277240Y-76146670D01*
X130283009Y-76144619D01*
X130298988Y-76139270D01*
X130315548Y-76134152D01*
X130332108Y-76129415D01*
X130348089Y-76125206D01*
X130362910Y-76121674D01*
X130375993Y-76118967D01*
X130386756Y-76117234D01*
X130394620Y-76116624D01*
X130397994Y-76116790D01*
X130406770Y-76117957D01*
X130418289Y-76120135D01*
X130432055Y-76123199D01*
X130447570Y-76127024D01*
X130464337Y-76131485D01*
X130481861Y-76136457D01*
X130499644Y-76141816D01*
X130517190Y-76147436D01*
X130524599Y-76149875D01*
X130533942Y-76152870D01*
X130540670Y-76154852D01*
X130545331Y-76155938D01*
X130548471Y-76156244D01*
X130550637Y-76155889D01*
X130552375Y-76154989D01*
X130554883Y-76153245D01*
X130562305Y-76147587D01*
X130572098Y-76139626D01*
X130584058Y-76129543D01*
X130597977Y-76117522D01*
X130613649Y-76103743D01*
X130630870Y-76088388D01*
X130649433Y-76071640D01*
X130669131Y-76053679D01*
X130689759Y-76034689D01*
X130711112Y-76014850D01*
X130729922Y-75997320D01*
X130753989Y-75974991D01*
X130775814Y-75954877D01*
X130795639Y-75936769D01*
X130813708Y-75920455D01*
X130830262Y-75905724D01*
X130845544Y-75892365D01*
X130859795Y-75880166D01*
X130873258Y-75868916D01*
X130886176Y-75858404D01*
X130898790Y-75848419D01*
X130911344Y-75838749D01*
X130924078Y-75829184D01*
X130945061Y-75814057D01*
X130980128Y-75790915D01*
X131014146Y-75771243D01*
X131047181Y-75755011D01*
X131079301Y-75742187D01*
X131110569Y-75732739D01*
X131141053Y-75726637D01*
X131155431Y-75725106D01*
X131172383Y-75724354D01*
X131190194Y-75724438D01*
X131207739Y-75725326D01*
X131223895Y-75726987D01*
X131237539Y-75729387D01*
X131249998Y-75732524D01*
X131277575Y-75741715D01*
X131302390Y-75753368D01*
X131324440Y-75767483D01*
X131343723Y-75784058D01*
X131350986Y-75791745D01*
X131366187Y-75811648D01*
X131378545Y-75833881D01*
X131388051Y-75858402D01*
X131394697Y-75885167D01*
X131398474Y-75914136D01*
X131399320Y-75943463D01*
X131399372Y-75945265D01*
X131397383Y-75978514D01*
X131392497Y-76013838D01*
X131386430Y-76043858D01*
X131376412Y-76082599D01*
X131363634Y-76123306D01*
X131348186Y-76165805D01*
X131330156Y-76209926D01*
X131309631Y-76255495D01*
X131286702Y-76302338D01*
X131261455Y-76350285D01*
X131233979Y-76399162D01*
X131204363Y-76448795D01*
X131172694Y-76499014D01*
X131139062Y-76549645D01*
X131103554Y-76600515D01*
X131066259Y-76651451D01*
X131029740Y-76700176D01*
X131050868Y-76737822D01*
X131053817Y-76743115D01*
X131059900Y-76754275D01*
X131065384Y-76764653D01*
X131069957Y-76773642D01*
X131073306Y-76780635D01*
X131075121Y-76785024D01*
X131077326Y-76795973D01*
X131077527Y-76808947D01*
X131075661Y-76821988D01*
X131071828Y-76833628D01*
X131071814Y-76833659D01*
X131069995Y-76836661D01*
X131066173Y-76842299D01*
X131060579Y-76850262D01*
X131053441Y-76860240D01*
X131044988Y-76871922D01*
X131035450Y-76884997D01*
X131025056Y-76899155D01*
X131014035Y-76914086D01*
X131002616Y-76929479D01*
X130991029Y-76945022D01*
X130979503Y-76960407D01*
X130968267Y-76975321D01*
X130957550Y-76989455D01*
X130947581Y-77002498D01*
X130938591Y-77014140D01*
X130938661Y-77015652D01*
X130940919Y-77019923D01*
X130945583Y-77026618D01*
X130952558Y-77035595D01*
X130955048Y-77038705D01*
X130968724Y-77056208D01*
X130983275Y-77075447D01*
X130997870Y-77095294D01*
X131011677Y-77114621D01*
X131023864Y-77132300D01*
X131036787Y-77151965D01*
X131055634Y-77182861D01*
X131062009Y-77194590D01*
X131071410Y-77211888D01*
X131084137Y-77239134D01*
G37*
%TO.C,R1*%
X129300000Y-83986359D02*
X129300000Y-84293641D01*
X128540000Y-83986359D02*
X128540000Y-84293641D01*
%TO.C,C5*%
X134007836Y-76960000D02*
X133792164Y-76960000D01*
X134007836Y-76240000D02*
X133792164Y-76240000D01*
%TO.C,U1*%
X131550000Y-77765000D02*
X130825000Y-77765000D01*
X138045000Y-77765000D02*
X138045000Y-78490000D01*
X138045000Y-84985000D02*
X138045000Y-84260000D01*
X137320000Y-77765000D02*
X138045000Y-77765000D01*
X130825000Y-77765000D02*
X130825000Y-78490000D01*
X131550000Y-84985000D02*
X130825000Y-84985000D01*
X137320000Y-84985000D02*
X138045000Y-84985000D01*
%TO.C,C4*%
X139380000Y-78392164D02*
X139380000Y-78607836D01*
X138660000Y-78392164D02*
X138660000Y-78607836D01*
%TO.C,C2*%
X129490000Y-84257836D02*
X129490000Y-84042164D01*
X130210000Y-84257836D02*
X130210000Y-84042164D01*
%TO.C,C3*%
X138790000Y-84357836D02*
X138790000Y-84142164D01*
X139510000Y-84357836D02*
X139510000Y-84142164D01*
%TO.C,C1*%
X129430000Y-80142164D02*
X129430000Y-80357836D01*
X128710000Y-80142164D02*
X128710000Y-80357836D01*
%TD*%
M02*
