%TF.GenerationSoftware,KiCad,Pcbnew,(6.0.8)*%
%TF.CreationDate,2022-12-19T21:27:54+01:00*%
%TF.ProjectId,Genna,47656e6e-612e-46b6-9963-61645f706362,rev?*%
%TF.SameCoordinates,Original*%
%TF.FileFunction,Drillmap*%
%TF.FilePolarity,Positive*%
%FSLAX45Y45*%
G04 Gerber Fmt 4.5, Leading zero omitted, Abs format (unit mm)*
G04 Created by KiCad (PCBNEW (6.0.8)) date 2022-12-19 21:27:54*
%MOMM*%
%LPD*%
G01*
G04 APERTURE LIST*
%ADD10C,0.100000*%
%ADD11C,0.200000*%
%ADD12C,0.020000*%
G04 APERTURE END LIST*
D10*
X12890000Y-7400000D02*
X13240000Y-7400000D01*
X14040000Y-7450000D02*
X13990000Y-7400000D01*
X13640000Y-7200000D02*
G75*
G03*
X13640000Y-7400000I0J-100000D01*
G01*
X14040000Y-6870000D02*
X12840000Y-6870000D01*
X14040000Y-8575000D02*
X14040000Y-7450000D01*
X12840000Y-7450000D02*
X12840000Y-8575000D01*
X12890000Y-7400000D02*
X12840000Y-7450000D01*
X12840000Y-8575000D02*
X12915000Y-8650000D01*
X12915000Y-8650000D02*
X13965000Y-8650000D01*
X13640000Y-7200000D02*
X14040000Y-7200000D01*
X13965000Y-8650000D02*
X14040000Y-8575000D01*
X13240000Y-7400000D02*
G75*
G03*
X13240000Y-7200000I0J100000D01*
G01*
X13990000Y-7400000D02*
X13640000Y-7400000D01*
X14040000Y-7200000D02*
X14040000Y-6870000D01*
X12840000Y-6870000D02*
X12840000Y-7200000D01*
X13240000Y-7200000D02*
X12840000Y-7200000D01*
D11*
D12*
X12880883Y-8293168D02*
X12900883Y-8313168D01*
X12900883Y-8293168D02*
X12880883Y-8313168D01*
X12930000Y-7710000D02*
X12950000Y-7730000D01*
X12950000Y-7710000D02*
X12930000Y-7730000D01*
X12940000Y-7995000D02*
X12960000Y-8015000D01*
X12960000Y-7995000D02*
X12940000Y-8015000D01*
X13136050Y-8540000D02*
X13156050Y-8560000D01*
X13156050Y-8540000D02*
X13136050Y-8560000D01*
X13139987Y-7711987D02*
X13159987Y-7731987D01*
X13159987Y-7711987D02*
X13139987Y-7731987D01*
X13191355Y-8181195D02*
X13211355Y-8201195D01*
X13211355Y-8181195D02*
X13191355Y-8201195D01*
X13236050Y-8543482D02*
X13256050Y-8563482D01*
X13256050Y-8543482D02*
X13236050Y-8563482D01*
X13360000Y-8590000D02*
X13380000Y-8610000D01*
X13380000Y-8590000D02*
X13360000Y-8610000D01*
X13365000Y-7573582D02*
X13385000Y-7593582D01*
X13385000Y-7573582D02*
X13365000Y-7593582D01*
X13402000Y-8340000D02*
X13422000Y-8360000D01*
X13422000Y-8340000D02*
X13402000Y-8360000D01*
X13456082Y-8367000D02*
X13476082Y-8387000D01*
X13476082Y-8367000D02*
X13456082Y-8387000D01*
X13840000Y-7640000D02*
X13860000Y-7660000D01*
X13860000Y-7640000D02*
X13840000Y-7660000D01*
X13902032Y-7930000D02*
X13922032Y-7950000D01*
X13922032Y-7930000D02*
X13902032Y-7950000D01*
X13910000Y-7637035D02*
X13930000Y-7657035D01*
X13930000Y-7637035D02*
X13910000Y-7657035D01*
X13912412Y-8322362D02*
X13932412Y-8342362D01*
X13932412Y-8322362D02*
X13912412Y-8342362D01*
X13936982Y-8005000D02*
X13956982Y-8025000D01*
X13956982Y-8005000D02*
X13936982Y-8025000D01*
X13942550Y-8540000D02*
X13962550Y-8560000D01*
X13962550Y-8540000D02*
X13942550Y-8560000D01*
X13955396Y-8274912D02*
X13975396Y-8294912D01*
X13975396Y-8274912D02*
X13955396Y-8294912D01*
X13993552Y-7576448D02*
X14013552Y-7596448D01*
X14013552Y-7576448D02*
X13993552Y-7596448D01*
D11*
X13092619Y-8965476D02*
X13092619Y-8765476D01*
X13140238Y-8765476D01*
X13168809Y-8775000D01*
X13187857Y-8794048D01*
X13197381Y-8813095D01*
X13206905Y-8851190D01*
X13206905Y-8879762D01*
X13197381Y-8917857D01*
X13187857Y-8936905D01*
X13168809Y-8955952D01*
X13140238Y-8965476D01*
X13092619Y-8965476D01*
X13292619Y-8965476D02*
X13292619Y-8832143D01*
X13292619Y-8870238D02*
X13302143Y-8851190D01*
X13311667Y-8841667D01*
X13330714Y-8832143D01*
X13349762Y-8832143D01*
X13416428Y-8965476D02*
X13416428Y-8832143D01*
X13416428Y-8765476D02*
X13406905Y-8775000D01*
X13416428Y-8784524D01*
X13425952Y-8775000D01*
X13416428Y-8765476D01*
X13416428Y-8784524D01*
X13540238Y-8965476D02*
X13521190Y-8955952D01*
X13511667Y-8936905D01*
X13511667Y-8765476D01*
X13645000Y-8965476D02*
X13625952Y-8955952D01*
X13616428Y-8936905D01*
X13616428Y-8765476D01*
X13873571Y-8965476D02*
X13873571Y-8765476D01*
X13940238Y-8908333D01*
X14006905Y-8765476D01*
X14006905Y-8965476D01*
X14187857Y-8965476D02*
X14187857Y-8860714D01*
X14178333Y-8841667D01*
X14159286Y-8832143D01*
X14121190Y-8832143D01*
X14102143Y-8841667D01*
X14187857Y-8955952D02*
X14168809Y-8965476D01*
X14121190Y-8965476D01*
X14102143Y-8955952D01*
X14092619Y-8936905D01*
X14092619Y-8917857D01*
X14102143Y-8898810D01*
X14121190Y-8889286D01*
X14168809Y-8889286D01*
X14187857Y-8879762D01*
X14283095Y-8832143D02*
X14283095Y-9032143D01*
X14283095Y-8841667D02*
X14302143Y-8832143D01*
X14340238Y-8832143D01*
X14359286Y-8841667D01*
X14368809Y-8851190D01*
X14378333Y-8870238D01*
X14378333Y-8927381D01*
X14368809Y-8946429D01*
X14359286Y-8955952D01*
X14340238Y-8965476D01*
X14302143Y-8965476D01*
X14283095Y-8955952D01*
X14464048Y-8946429D02*
X14473571Y-8955952D01*
X14464048Y-8965476D01*
X14454524Y-8955952D01*
X14464048Y-8946429D01*
X14464048Y-8965476D01*
X14464048Y-8841667D02*
X14473571Y-8851190D01*
X14464048Y-8860714D01*
X14454524Y-8851190D01*
X14464048Y-8841667D01*
X14464048Y-8860714D01*
D12*
X12815000Y-9285000D02*
X12835000Y-9305000D01*
X12835000Y-9285000D02*
X12815000Y-9305000D01*
D11*
X13130714Y-9185476D02*
X13149762Y-9185476D01*
X13168809Y-9195000D01*
X13178333Y-9204524D01*
X13187857Y-9223571D01*
X13197381Y-9261667D01*
X13197381Y-9309286D01*
X13187857Y-9347381D01*
X13178333Y-9366429D01*
X13168809Y-9375952D01*
X13149762Y-9385476D01*
X13130714Y-9385476D01*
X13111667Y-9375952D01*
X13102143Y-9366429D01*
X13092619Y-9347381D01*
X13083095Y-9309286D01*
X13083095Y-9261667D01*
X13092619Y-9223571D01*
X13102143Y-9204524D01*
X13111667Y-9195000D01*
X13130714Y-9185476D01*
X13283095Y-9366429D02*
X13292619Y-9375952D01*
X13283095Y-9385476D01*
X13273571Y-9375952D01*
X13283095Y-9366429D01*
X13283095Y-9385476D01*
X13368809Y-9204524D02*
X13378333Y-9195000D01*
X13397381Y-9185476D01*
X13445000Y-9185476D01*
X13464048Y-9195000D01*
X13473571Y-9204524D01*
X13483095Y-9223571D01*
X13483095Y-9242619D01*
X13473571Y-9271190D01*
X13359286Y-9385476D01*
X13483095Y-9385476D01*
X13606905Y-9185476D02*
X13625952Y-9185476D01*
X13645000Y-9195000D01*
X13654524Y-9204524D01*
X13664048Y-9223571D01*
X13673571Y-9261667D01*
X13673571Y-9309286D01*
X13664048Y-9347381D01*
X13654524Y-9366429D01*
X13645000Y-9375952D01*
X13625952Y-9385476D01*
X13606905Y-9385476D01*
X13587857Y-9375952D01*
X13578333Y-9366429D01*
X13568809Y-9347381D01*
X13559286Y-9309286D01*
X13559286Y-9261667D01*
X13568809Y-9223571D01*
X13578333Y-9204524D01*
X13587857Y-9195000D01*
X13606905Y-9185476D01*
X13797381Y-9185476D02*
X13816428Y-9185476D01*
X13835476Y-9195000D01*
X13845000Y-9204524D01*
X13854524Y-9223571D01*
X13864048Y-9261667D01*
X13864048Y-9309286D01*
X13854524Y-9347381D01*
X13845000Y-9366429D01*
X13835476Y-9375952D01*
X13816428Y-9385476D01*
X13797381Y-9385476D01*
X13778333Y-9375952D01*
X13768809Y-9366429D01*
X13759286Y-9347381D01*
X13749762Y-9309286D01*
X13749762Y-9261667D01*
X13759286Y-9223571D01*
X13768809Y-9204524D01*
X13778333Y-9195000D01*
X13797381Y-9185476D01*
X13949762Y-9385476D02*
X13949762Y-9252143D01*
X13949762Y-9271190D02*
X13959286Y-9261667D01*
X13978333Y-9252143D01*
X14006905Y-9252143D01*
X14025952Y-9261667D01*
X14035476Y-9280714D01*
X14035476Y-9385476D01*
X14035476Y-9280714D02*
X14045000Y-9261667D01*
X14064048Y-9252143D01*
X14092619Y-9252143D01*
X14111667Y-9261667D01*
X14121190Y-9280714D01*
X14121190Y-9385476D01*
X14216428Y-9385476D02*
X14216428Y-9252143D01*
X14216428Y-9271190D02*
X14225952Y-9261667D01*
X14245000Y-9252143D01*
X14273571Y-9252143D01*
X14292619Y-9261667D01*
X14302143Y-9280714D01*
X14302143Y-9385476D01*
X14302143Y-9280714D02*
X14311667Y-9261667D01*
X14330714Y-9252143D01*
X14359286Y-9252143D01*
X14378333Y-9261667D01*
X14387857Y-9280714D01*
X14387857Y-9385476D01*
X14778333Y-9175952D02*
X14606905Y-9433095D01*
X15035476Y-9185476D02*
X15054524Y-9185476D01*
X15073571Y-9195000D01*
X15083095Y-9204524D01*
X15092619Y-9223571D01*
X15102143Y-9261667D01*
X15102143Y-9309286D01*
X15092619Y-9347381D01*
X15083095Y-9366429D01*
X15073571Y-9375952D01*
X15054524Y-9385476D01*
X15035476Y-9385476D01*
X15016428Y-9375952D01*
X15006905Y-9366429D01*
X14997381Y-9347381D01*
X14987857Y-9309286D01*
X14987857Y-9261667D01*
X14997381Y-9223571D01*
X15006905Y-9204524D01*
X15016428Y-9195000D01*
X15035476Y-9185476D01*
X15187857Y-9366429D02*
X15197381Y-9375952D01*
X15187857Y-9385476D01*
X15178333Y-9375952D01*
X15187857Y-9366429D01*
X15187857Y-9385476D01*
X15321190Y-9185476D02*
X15340238Y-9185476D01*
X15359286Y-9195000D01*
X15368809Y-9204524D01*
X15378333Y-9223571D01*
X15387857Y-9261667D01*
X15387857Y-9309286D01*
X15378333Y-9347381D01*
X15368809Y-9366429D01*
X15359286Y-9375952D01*
X15340238Y-9385476D01*
X15321190Y-9385476D01*
X15302143Y-9375952D01*
X15292619Y-9366429D01*
X15283095Y-9347381D01*
X15273571Y-9309286D01*
X15273571Y-9261667D01*
X15283095Y-9223571D01*
X15292619Y-9204524D01*
X15302143Y-9195000D01*
X15321190Y-9185476D01*
X15511667Y-9185476D02*
X15530714Y-9185476D01*
X15549762Y-9195000D01*
X15559286Y-9204524D01*
X15568809Y-9223571D01*
X15578333Y-9261667D01*
X15578333Y-9309286D01*
X15568809Y-9347381D01*
X15559286Y-9366429D01*
X15549762Y-9375952D01*
X15530714Y-9385476D01*
X15511667Y-9385476D01*
X15492619Y-9375952D01*
X15483095Y-9366429D01*
X15473571Y-9347381D01*
X15464048Y-9309286D01*
X15464048Y-9261667D01*
X15473571Y-9223571D01*
X15483095Y-9204524D01*
X15492619Y-9195000D01*
X15511667Y-9185476D01*
X15645000Y-9185476D02*
X15778333Y-9185476D01*
X15692619Y-9385476D01*
X15864048Y-9385476D02*
X15902143Y-9385476D01*
X15921190Y-9375952D01*
X15930714Y-9366429D01*
X15949762Y-9337857D01*
X15959286Y-9299762D01*
X15959286Y-9223571D01*
X15949762Y-9204524D01*
X15940238Y-9195000D01*
X15921190Y-9185476D01*
X15883095Y-9185476D01*
X15864048Y-9195000D01*
X15854524Y-9204524D01*
X15845000Y-9223571D01*
X15845000Y-9271190D01*
X15854524Y-9290238D01*
X15864048Y-9299762D01*
X15883095Y-9309286D01*
X15921190Y-9309286D01*
X15940238Y-9299762D01*
X15949762Y-9290238D01*
X15959286Y-9271190D01*
X16035476Y-9185476D02*
X16035476Y-9223571D01*
X16111667Y-9185476D02*
X16111667Y-9223571D01*
X16406905Y-9461667D02*
X16397381Y-9452143D01*
X16378333Y-9423571D01*
X16368809Y-9404524D01*
X16359286Y-9375952D01*
X16349762Y-9328333D01*
X16349762Y-9290238D01*
X16359286Y-9242619D01*
X16368809Y-9214048D01*
X16378333Y-9195000D01*
X16397381Y-9166429D01*
X16406905Y-9156905D01*
X16587857Y-9385476D02*
X16473571Y-9385476D01*
X16530714Y-9385476D02*
X16530714Y-9185476D01*
X16511667Y-9214048D01*
X16492619Y-9233095D01*
X16473571Y-9242619D01*
X16683095Y-9385476D02*
X16721190Y-9385476D01*
X16740238Y-9375952D01*
X16749762Y-9366429D01*
X16768809Y-9337857D01*
X16778333Y-9299762D01*
X16778333Y-9223571D01*
X16768809Y-9204524D01*
X16759286Y-9195000D01*
X16740238Y-9185476D01*
X16702143Y-9185476D01*
X16683095Y-9195000D01*
X16673571Y-9204524D01*
X16664048Y-9223571D01*
X16664048Y-9271190D01*
X16673571Y-9290238D01*
X16683095Y-9299762D01*
X16702143Y-9309286D01*
X16740238Y-9309286D01*
X16759286Y-9299762D01*
X16768809Y-9290238D01*
X16778333Y-9271190D01*
X17016429Y-9385476D02*
X17016429Y-9185476D01*
X17102143Y-9385476D02*
X17102143Y-9280714D01*
X17092619Y-9261667D01*
X17073571Y-9252143D01*
X17045000Y-9252143D01*
X17025952Y-9261667D01*
X17016429Y-9271190D01*
X17225952Y-9385476D02*
X17206905Y-9375952D01*
X17197381Y-9366429D01*
X17187857Y-9347381D01*
X17187857Y-9290238D01*
X17197381Y-9271190D01*
X17206905Y-9261667D01*
X17225952Y-9252143D01*
X17254524Y-9252143D01*
X17273571Y-9261667D01*
X17283095Y-9271190D01*
X17292619Y-9290238D01*
X17292619Y-9347381D01*
X17283095Y-9366429D01*
X17273571Y-9375952D01*
X17254524Y-9385476D01*
X17225952Y-9385476D01*
X17406905Y-9385476D02*
X17387857Y-9375952D01*
X17378333Y-9356905D01*
X17378333Y-9185476D01*
X17559286Y-9375952D02*
X17540238Y-9385476D01*
X17502143Y-9385476D01*
X17483095Y-9375952D01*
X17473571Y-9356905D01*
X17473571Y-9280714D01*
X17483095Y-9261667D01*
X17502143Y-9252143D01*
X17540238Y-9252143D01*
X17559286Y-9261667D01*
X17568810Y-9280714D01*
X17568810Y-9299762D01*
X17473571Y-9318810D01*
X17645000Y-9375952D02*
X17664048Y-9385476D01*
X17702143Y-9385476D01*
X17721190Y-9375952D01*
X17730714Y-9356905D01*
X17730714Y-9347381D01*
X17721190Y-9328333D01*
X17702143Y-9318810D01*
X17673571Y-9318810D01*
X17654524Y-9309286D01*
X17645000Y-9290238D01*
X17645000Y-9280714D01*
X17654524Y-9261667D01*
X17673571Y-9252143D01*
X17702143Y-9252143D01*
X17721190Y-9261667D01*
X17797381Y-9461667D02*
X17806905Y-9452143D01*
X17825952Y-9423571D01*
X17835476Y-9404524D01*
X17845000Y-9375952D01*
X17854524Y-9328333D01*
X17854524Y-9290238D01*
X17845000Y-9242619D01*
X17835476Y-9214048D01*
X17825952Y-9195000D01*
X17806905Y-9166429D01*
X17797381Y-9156905D01*
M02*
