%TF.GenerationSoftware,KiCad,Pcbnew,(6.0.8)*%
%TF.CreationDate,2022-12-19T21:27:52+01:00*%
%TF.ProjectId,Genna,47656e6e-612e-46b6-9963-61645f706362,rev?*%
%TF.SameCoordinates,Original*%
%TF.FileFunction,Soldermask,Bot*%
%TF.FilePolarity,Negative*%
%FSLAX46Y46*%
G04 Gerber Fmt 4.6, Leading zero omitted, Abs format (unit mm)*
G04 Created by KiCad (PCBNEW (6.0.8)) date 2022-12-19 21:27:52*
%MOMM*%
%LPD*%
G01*
G04 APERTURE LIST*
G04 Aperture macros list*
%AMRoundRect*
0 Rectangle with rounded corners*
0 $1 Rounding radius*
0 $2 $3 $4 $5 $6 $7 $8 $9 X,Y pos of 4 corners*
0 Add a 4 corners polygon primitive as box body*
4,1,4,$2,$3,$4,$5,$6,$7,$8,$9,$2,$3,0*
0 Add four circle primitives for the rounded corners*
1,1,$1+$1,$2,$3*
1,1,$1+$1,$4,$5*
1,1,$1+$1,$6,$7*
1,1,$1+$1,$8,$9*
0 Add four rect primitives between the rounded corners*
20,1,$1+$1,$2,$3,$4,$5,0*
20,1,$1+$1,$4,$5,$6,$7,0*
20,1,$1+$1,$6,$7,$8,$9,0*
20,1,$1+$1,$8,$9,$2,$3,0*%
G04 Aperture macros list end*
%ADD10C,0.500000*%
%ADD11RoundRect,0.135000X0.185000X-0.135000X0.185000X0.135000X-0.185000X0.135000X-0.185000X-0.135000X0*%
%ADD12RoundRect,0.135000X-0.185000X0.135000X-0.185000X-0.135000X0.185000X-0.135000X0.185000X0.135000X0*%
%ADD13RoundRect,0.140000X0.140000X0.170000X-0.140000X0.170000X-0.140000X-0.170000X0.140000X-0.170000X0*%
%ADD14RoundRect,0.062500X-0.475000X-0.062500X0.475000X-0.062500X0.475000X0.062500X-0.475000X0.062500X0*%
%ADD15RoundRect,0.062500X-0.062500X-0.475000X0.062500X-0.475000X0.062500X0.475000X-0.062500X0.475000X0*%
%ADD16R,3.000000X3.000000*%
%ADD17RoundRect,0.140000X-0.170000X0.140000X-0.170000X-0.140000X0.170000X-0.140000X0.170000X0.140000X0*%
%ADD18RoundRect,0.187500X-0.187500X0.562500X-0.187500X-0.562500X0.187500X-0.562500X0.187500X0.562500X0*%
%ADD19RoundRect,0.140000X0.170000X-0.140000X0.170000X0.140000X-0.170000X0.140000X-0.170000X-0.140000X0*%
G04 APERTURE END LIST*
D10*
%TO.C,REF\u002A\u002A*%
X134400000Y-73600000D03*
X135150000Y-73600000D03*
X133650000Y-73600000D03*
%TD*%
D11*
%TO.C,R2*%
X129060000Y-82600000D03*
X129060000Y-81580000D03*
%TD*%
%TO.C,R3*%
X129080000Y-78880000D03*
X129080000Y-77860000D03*
%TD*%
D12*
%TO.C,R1*%
X128920000Y-83630000D03*
X128920000Y-84650000D03*
%TD*%
D13*
%TO.C,C5*%
X134380000Y-76600000D03*
X133420000Y-76600000D03*
%TD*%
D14*
%TO.C,U1*%
X131097500Y-83875000D03*
X131097500Y-83375000D03*
X131097500Y-82875000D03*
X131097500Y-82375000D03*
X131097500Y-81875000D03*
X131097500Y-81375000D03*
X131097500Y-80875000D03*
X131097500Y-80375000D03*
X131097500Y-79875000D03*
X131097500Y-79375000D03*
X131097500Y-78875000D03*
D15*
X131935000Y-78037500D03*
X132435000Y-78037500D03*
X132935000Y-78037500D03*
X133435000Y-78037500D03*
X133935000Y-78037500D03*
X134435000Y-78037500D03*
X134935000Y-78037500D03*
X135435000Y-78037500D03*
X135935000Y-78037500D03*
X136435000Y-78037500D03*
X136935000Y-78037500D03*
D14*
X137772500Y-78875000D03*
X137772500Y-79375000D03*
X137772500Y-79875000D03*
X137772500Y-80375000D03*
X137772500Y-80875000D03*
X137772500Y-81375000D03*
X137772500Y-81875000D03*
X137772500Y-82375000D03*
X137772500Y-82875000D03*
X137772500Y-83375000D03*
X137772500Y-83875000D03*
D15*
X136935000Y-84712500D03*
X136435000Y-84712500D03*
X135935000Y-84712500D03*
X135435000Y-84712500D03*
X134935000Y-84712500D03*
X134435000Y-84712500D03*
X133935000Y-84712500D03*
X133435000Y-84712500D03*
X132935000Y-84712500D03*
X132435000Y-84712500D03*
X131935000Y-84712500D03*
D16*
X134435000Y-81375000D03*
%TD*%
D17*
%TO.C,C4*%
X139020000Y-78020000D03*
X139020000Y-78980000D03*
%TD*%
D18*
%TO.C,J2*%
X129315000Y-74850000D03*
X130585000Y-74850000D03*
X131855000Y-74850000D03*
X133125000Y-74850000D03*
X134395000Y-74850000D03*
X135665000Y-74850000D03*
X136935000Y-74850000D03*
X138205000Y-74850000D03*
X139475000Y-74850000D03*
%TD*%
D19*
%TO.C,C2*%
X129850000Y-84630000D03*
X129850000Y-83670000D03*
%TD*%
%TO.C,C3*%
X139150000Y-84730000D03*
X139150000Y-83770000D03*
%TD*%
D17*
%TO.C,C1*%
X129070000Y-79770000D03*
X129070000Y-80730000D03*
%TD*%
M02*
